# xmcd
#
# Track frame offsets: 
#        150
#        12828
#        23746
#        39360
#        53629
#        73244
#        87749
#        103919
#        120593
#        136622
#        157059
#        167908
#        182279
#        198353
#        214241
#
# Disc length: 3075 seconds
#
# Revision: 0
# Processed by: cddbd v1.5.1PL2 Copyright (c) Steve Scherf et al.
# Submitted via: ExactAudioCopy v0.95b4
#
DISCID=cb0c010f
DTITLE=Craig Chambers - Goin' To Town
DYEAR=2002
DGENRE=Western Swing
TTITLE0=Crazy 'Cause I Love You
TTITLE1=Just Between You and Me
TTITLE2=Travelin' Light
TTITLE3=Crime and Ranchin'
TTITLE4=Three Quarter Moon, 3/4 Time
TTITLE5=Clementine
TTITLE6=Prairie Serenade
TTITLE7=Good Brown Gravy
TTITLE8=The Place Where I Worship
TTITLE9=White Bread Blues
TTITLE10=In My Dreams
TTITLE11=A Little Sentimental
TTITLE12=Louisiana Moon
TTITLE13=I'm Goin' to Town
TTITLE14=Texas Is Still Home to Me
EXTD=
EXTT0=
EXTT1=
EXTT2=
EXTT3=
EXTT4=
EXTT5=
EXTT6=
EXTT7=
EXTT8=
EXTT9=
EXTT10=
EXTT11=
EXTT12=
EXTT13=
EXTT14=
PLAYORDER=
